<?xml version="1.0" standalone="no"?>
<!DOCTYPE svg PUBLIC "-//W3C//DTD SVG 20010904//EN"
 "http://www.w3.org/TR/2001/REC-SVG-20010904/DTD/svg10.dtd">
<svg version="1.0" xmlns="http://www.w3.org/2000/svg"
 width="265.000000pt" height="238.000000pt" viewBox="0 0 265.000000 238.000000"
 preserveAspectRatio="xMidYMid meet">
<metadata>
Created by potrace 1.10, written by Peter Selinger 2001-2011
</metadata>
<g transform="translate(0.000000,238.000000) scale(0.100000,-0.100000)"
fill="#000000" stroke="none">
<path d="M1700 2066 c-48 -14 -113 -45 -145 -70 -28 -22 -9 -20 55 6 79 31
209 32 266 1 84 -45 144 -135 169 -253 50 -236 -39 -575 -221 -846 -63 -94
-192 -227 -281 -291 -35 -25 -63 -46 -63 -48 0 -2 16 -9 36 -15 35 -12 39 -10
104 34 146 100 309 303 410 511 90 183 132 339 145 530 6 83 4 115 -14 188
-11 48 -27 100 -36 116 -19 38 -80 85 -152 118 -69 32 -198 41 -273 19z m302
-76 c15 -11 31 -20 36 -20 26 0 87 -101 79 -131 -3 -11 -2 -17 3 -14 10 6 20
-72 20 -160 0 -153 -51 -371 -120 -513 -16 -34 -30 -66 -30 -70 -1 -14 -41
-55 -48 -48 -4 4 3 16 15 26 12 9 20 20 16 23 -3 4 6 28 19 54 34 65 106 343
89 343 -3 0 1 5 9 10 11 7 11 10 2 10 -9 0 -10 5 -2 19 9 18 0 174 -17 261 -8
47 -47 133 -67 150 -9 7 -15 19 -12 26 3 8 2 13 -2 11 -4 -1 -16 7 -28 18 -11
11 -29 25 -40 32 -15 10 -13 10 16 2 19 -5 47 -18 62 -29z m-168 -1152 c-49
-57 -64 -72 -64 -65 0 8 12 24 48 62 29 31 42 33 16 3z"/>
<path d="M1550 1956 c-25 -8 -57 -16 -71 -20 -14 -3 -55 -33 -92 -66 -36 -33
-69 -60 -74 -59 -21 4 -35 -5 -88 -53 -166 -152 -297 -379 -346 -602 -21 -97
-20 -116 9 -116 16 0 22 14 37 88 43 222 160 448 314 612 67 70 60 46 -16 -55
-70 -94 -123 -181 -153 -250 -83 -191 -127 -385 -90 -392 25 -5 41 12 46 48
36 238 189 553 357 734 l65 70 104 0 c99 0 107 -2 154 -30 96 -60 144 -165
151 -337 6 -120 -8 -203 -59 -348 -77 -220 -237 -435 -389 -522 -32 -18 -59
-36 -59 -40 0 -3 16 -12 36 -18 34 -11 39 -10 92 26 84 56 210 187 274 284
130 197 196 382 214 597 16 195 -60 372 -189 440 -42 22 -168 27 -227 9z m215
-43 c19 -9 35 -20 35 -25 0 -4 5 -8 11 -8 17 0 41 -29 33 -41 -4 -7 -3 -9 3
-6 10 7 17 -4 54 -88 31 -71 38 -223 14 -344 -10 -50 -24 -96 -33 -103 -13
-11 -14 -10 -8 7 12 41 25 176 19 207 -4 22 -3 29 6 24 8 -5 9 -1 2 16 -5 13
-14 52 -21 88 -6 36 -22 88 -36 115 -22 48 -97 135 -116 135 -5 0 -6 5 -3 10
5 9 -23 15 -47 11 -5 0 -8 4 -8 9 0 16 56 12 95 -7z m109 -689 c-30 -90 -34
-98 -45 -87 -6 6 -2 28 13 64 36 91 61 109 32 23z m-64 -144 c-7 -22 -17 -40
-22 -40 -12 0 -9 12 7 34 8 11 15 29 15 40 0 10 3 16 7 13 3 -4 0 -25 -7 -47z"/>
<path d="M1405 1834 c-25 -25 -13 -38 41 -45 64 -8 102 -28 146 -77 70 -77
104 -223 86 -372 -12 -100 -32 -166 -83 -280 -24 -52 -53 -124 -64 -160 -12
-36 -24 -73 -28 -82 -14 -44 19 -10 79 80 102 151 149 260 182 424 47 231 -23
443 -168 509 -54 24 -167 26 -191 3z m175 -42 c0 -7 5 -10 10 -7 29 18 104
-77 135 -170 12 -35 16 -225 6 -243 -8 -13 -11 -1 -12 48 -1 85 -2 93 -24 172
-11 43 -22 65 -29 61 -6 -3 -8 -3 -4 2 9 9 -19 65 -32 65 -5 0 -12 9 -15 21
-4 11 -9 18 -12 16 -2 -3 -13 3 -24 14 -10 10 -26 19 -34 19 -8 0 -15 4 -15 9
0 5 11 8 25 7 14 0 25 -7 25 -14z"/>
<path d="M1325 1703 c-45 -63 -145 -266 -183 -373 -36 -103 -75 -267 -67 -280
14 -22 75 -7 75 19 0 28 38 171 80 301 22 69 45 144 50 168 6 23 17 42 24 42
7 0 37 -23 66 -51 29 -27 55 -48 58 -45 10 11 -18 56 -63 105 -47 50 -54 71
-32 89 19 16 87 -28 122 -78 39 -56 65 -142 65 -215 0 -34 7 -84 15 -111 8
-27 15 -61 15 -76 0 -25 15 -46 26 -36 9 10 34 177 34 233 0 111 -39 220 -102
284 -32 32 -104 71 -134 71 -7 0 -29 -21 -49 -47z m155 -48 c0 -7 6 -18 14
-22 21 -13 68 -110 73 -153 7 -61 -13 -55 -26 8 -6 34 -26 82 -46 113 -37 58
-41 69 -25 69 6 0 10 -7 10 -15z m100 -265 c0 -16 -4 -30 -10 -30 -5 0 -11 3
-11 8 -7 37 -5 52 7 52 9 0 14 -11 14 -30z"/>
<path d="M2277 1648 c-10 -146 -63 -342 -136 -502 -110 -242 -324 -507 -483
-599 -21 -12 -38 -25 -38 -29 0 -4 18 -13 40 -19 38 -12 42 -11 97 26 87 57
240 216 327 340 133 188 286 532 286 642 0 36 -68 223 -81 223 -3 0 -9 -37
-12 -82z m58 -116 c3 -16 1 -46 -4 -68 -13 -52 -64 -198 -71 -204 -4 -3 -11
-21 -16 -40 -7 -22 -16 -34 -25 -32 -8 2 -11 1 -8 -3 13 -12 -46 -136 -109
-231 -93 -141 -192 -263 -192 -236 0 7 7 15 15 18 8 4 15 10 15 15 0 9 8 21
38 54 6 7 12 17 12 21 0 4 8 13 18 20 9 7 17 16 18 21 2 19 17 43 24 38 4 -3
10 9 14 27 3 17 9 28 13 25 9 -10 34 43 26 56 -3 5 -1 7 5 3 6 -4 12 3 14 16
2 13 9 22 16 20 9 -2 11 4 8 16 -4 11 0 24 9 32 8 7 15 16 15 20 0 5 10 30 22
57 39 86 79 207 84 253 4 39 11 69 30 128 6 20 22 5 29 -26z"/>
<path d="M1049 1623 c-87 -89 -147 -174 -195 -277 -34 -75 -72 -205 -76 -266
-3 -30 0 -35 20 -38 16 -3 22 2 22 16 0 42 51 218 88 300 46 105 103 190 184
277 86 92 48 81 -43 -12z"/>
<path d="M2401 1278 c-18 -59 -118 -249 -184 -351 -109 -168 -241 -314 -376
-416 l-74 -56 46 -14 c47 -14 47 -14 94 19 160 113 355 341 490 575 l41 70 -5
108 c-3 59 -9 107 -13 107 -4 0 -13 -19 -19 -42z m-1 -144 c0 -20 -4 -33 -10
-29 -5 3 -7 0 -4 -9 5 -14 -28 -72 -51 -88 -5 -4 -7 -8 -3 -8 4 0 -9 -24 -28
-52 -19 -29 -34 -56 -34 -61 0 -4 -4 -5 -10 -2 -5 3 -7 0 -4 -8 3 -8 -5 -23
-18 -33 -13 -11 -35 -35 -48 -54 -55 -78 -163 -193 -173 -184 -4 4 5 18 18 33
14 14 32 35 41 46 8 11 12 14 8 6 -5 -9 -3 -12 4 -7 7 4 12 13 12 20 0 6 16
29 35 49 19 20 35 41 35 46 0 5 7 14 16 22 8 7 24 30 35 51 11 21 26 38 33 38
9 0 12 8 9 23 -4 18 -3 19 6 7 9 -13 11 -12 11 3 0 28 31 88 41 81 5 -3 9 4 9
15 0 12 5 21 10 21 6 0 10 8 10 19 0 10 9 30 20 44 11 14 20 30 20 36 0 6 2
11 5 11 3 0 5 -16 5 -36z m-390 -540 c0 -9 -64 -63 -69 -59 -2 3 9 18 25 34
29 28 44 37 44 25z"/>
<path d="M2387 861 c-22 -37 -152 -197 -212 -263 -56 -59 -159 -148 -203 -174
-18 -10 -32 -21 -32 -25 0 -4 21 -14 47 -23 46 -16 47 -16 87 11 23 16 98 84
167 153 l127 125 21 80 c29 114 35 145 24 145 -5 0 -17 -13 -26 -29z m-47
-151 c0 -11 -20 -41 -45 -65 -24 -25 -42 -45 -39 -45 2 0 -1 -6 -8 -14 -7 -8
-16 -12 -20 -9 -5 2 -8 -2 -8 -9 0 -8 -9 -21 -20 -31 -11 -9 -20 -15 -20 -13
0 2 -17 -13 -38 -33 -42 -41 -106 -91 -115 -91 -15 0 -6 21 11 27 9 4 23 15
30 25 7 10 18 16 23 13 5 -4 9 0 9 7 0 7 16 24 35 36 18 13 40 34 48 45 8 12
25 33 38 47 13 14 44 49 68 78 25 29 46 52 48 52 2 0 3 -9 3 -20z"/>
</g>
</svg>
